<?xml version="1.0" encoding="UTF-8" standalone="no"?>
<svg
   xmlns:dc="http://purl.org/dc/elements/1.1/"
   xmlns:cc="http://creativecommons.org/ns#"
   xmlns:rdf="http://www.w3.org/1999/02/22-rdf-syntax-ns#"
   xmlns:svg="http://www.w3.org/2000/svg"
   xmlns="http://www.w3.org/2000/svg"
   xmlns:sodipodi="http://sodipodi.sourceforge.net/DTD/sodipodi-0.dtd"
   xmlns:inkscape="http://www.inkscape.org/namespaces/inkscape"
   xml:space="preserve"
   viewBox="0 0 76.900002 57.5"
   y="0px"
   x="0px"
   id="Layer_1"
   version="1.1"
   inkscape:version="0.91 r13725"
   sodipodi:docname="aws.svg"
   width="76.900002"
   height="57.5"><sodipodi:namedview
     pagecolor="#ffffff"
     bordercolor="#666666"
     borderopacity="1"
     objecttolerance="10"
     gridtolerance="10"
     guidetolerance="10"
     inkscape:pageopacity="0"
     inkscape:pageshadow="2"
     inkscape:window-width="1594"
     inkscape:window-height="851"
     id="namedview3416"
     showgrid="false"
     fit-margin-top="0"
     fit-margin-left="0"
     fit-margin-right="0"
     fit-margin-bottom="0"
     inkscape:zoom="1.0718954"
     inkscape:cx="210.125"
     inkscape:cy="28.9"
     inkscape:window-x="0"
     inkscape:window-y="46"
     inkscape:window-maximized="0"
     inkscape:current-layer="Layer_1" /><metadata
     id="metadata25"><rdf:RDF><cc:Work
         rdf:about=""><dc:format>image/svg+xml</dc:format><dc:type
           rdf:resource="http://purl.org/dc/dcmitype/StillImage" /><dc:title></dc:title></cc:Work></rdf:RDF></metadata><defs
     id="defs23" /><style
     id="style2"
     type="text/css">
	.st0{fill:#FABD18;}
</style><g
     id="XMLID_79_"
     transform="translate(-358,-277.4)"><polygon
       points="358,313.2 367.2,316.2 367.2,303.3 358,300.3 "
       class="st0"
       id="XMLID_104_"
       style="fill:#fabd18" /><polygon
       points="378.4,313.2 369.2,316.2 369.2,303.3 378.4,300.3 "
       class="st0"
       id="XMLID_101_"
       style="fill:#fabd18" /><polygon
       points="368.2,301.7 376.3,298.9 368,296.3 359.6,298.9 "
       class="st0"
       id="XMLID_100_"
       style="fill:#fabd18" /><polygon
       points="369.4,331.8 378.6,334.9 378.6,322 369.4,318.9 "
       class="st0"
       id="XMLID_99_"
       style="fill:#fabd18" /><polygon
       points="389.8,331.8 380.6,334.9 380.6,322 389.8,318.9 "
       class="st0"
       id="XMLID_96_"
       style="fill:#fabd18" /><polygon
       points="379.6,320.3 387.7,317.5 379.3,315 371,317.5 "
       class="st0"
       id="XMLID_95_"
       style="fill:#fabd18" /><polygon
       points="380.7,313.2 389.9,316.2 389.9,303.3 380.7,300.3 "
       class="st0"
       id="XMLID_94_"
       style="fill:#fabd18" /><polygon
       points="401.1,313.2 391.9,316.2 391.9,303.3 401.1,300.3 "
       class="st0"
       id="XMLID_91_"
       style="fill:#fabd18" /><polygon
       points="390.9,301.7 399,298.9 390.7,296.3 382.4,298.9 "
       class="st0"
       id="XMLID_90_"
       style="fill:#fabd18" /><polygon
       points="391.8,294.2 400.9,297.3 400.9,284.4 391.8,281.3 "
       class="st0"
       id="XMLID_89_"
       style="fill:#fabd18" /><polygon
       points="412.1,294.2 403,297.3 403,284.4 412.1,281.3 "
       class="st0"
       id="XMLID_88_"
       style="fill:#fabd18" /><polygon
       points="402,282.7 410.1,280 401.7,277.4 393.4,280 "
       class="st0"
       id="XMLID_85_"
       style="fill:#fabd18" /><polygon
       points="414.5,294.2 423.7,297.3 423.7,284.4 414.5,281.3 "
       class="st0"
       id="XMLID_84_"
       style="fill:#fabd18" /><polygon
       points="434.9,294.2 425.7,297.3 425.7,284.4 434.9,281.3 "
       class="st0"
       id="XMLID_83_"
       style="fill:#fabd18" /><polygon
       points="424.7,282.7 432.8,280 424.4,277.4 416.1,280 "
       class="st0"
       id="XMLID_80_"
       style="fill:#fabd18" /></g></svg>