<?xml version="1.0" encoding="UTF-8" standalone="no"?>
<!-- Generator: Adobe Illustrator 19.0.0, SVG Export Plug-In . SVG Version: 6.00 Build 0)  -->

<svg
   xmlns:dc="http://purl.org/dc/elements/1.1/"
   xmlns:cc="http://creativecommons.org/ns#"
   xmlns:rdf="http://www.w3.org/1999/02/22-rdf-syntax-ns#"
   xmlns:svg="http://www.w3.org/2000/svg"
   xmlns="http://www.w3.org/2000/svg"
   xmlns:sodipodi="http://sodipodi.sourceforge.net/DTD/sodipodi-0.dtd"
   xmlns:inkscape="http://www.inkscape.org/namespaces/inkscape"
   version="1.1"
   id="Layer_1"
   x="0px"
   y="0px"
   viewBox="0 0 139.77795 92.699997"
   xml:space="preserve"
   inkscape:version="0.91 r13725"
   sodipodi:docname="docker.svg"
   width="139.77795"
   height="92.699997"><metadata
     id="metadata3417"><rdf:RDF><cc:Work
         rdf:about=""><dc:format>image/svg+xml</dc:format><dc:type
           rdf:resource="http://purl.org/dc/dcmitype/StillImage" /><dc:title></dc:title></cc:Work></rdf:RDF></metadata><defs
     id="defs3415" /><sodipodi:namedview
     pagecolor="#ffffff"
     bordercolor="#666666"
     borderopacity="1"
     objecttolerance="10"
     gridtolerance="10"
     guidetolerance="10"
     inkscape:pageopacity="0"
     inkscape:pageshadow="2"
     inkscape:window-width="1914"
     inkscape:window-height="1054"
     id="namedview3413"
     showgrid="false"
     fit-margin-top="0"
     fit-margin-left="0"
     fit-margin-right="0"
     fit-margin-bottom="0"
     inkscape:zoom="4.39"
     inkscape:cx="69.421036"
     inkscape:cy="47.000009"
     inkscape:window-x="0"
     inkscape:window-y="20"
     inkscape:window-maximized="0"
     inkscape:current-layer="Layer_1" /><style
     type="text/css"
     id="style3408">
	.st0{fill:#007DE7;}
</style><g
     id="XMLID_32_"
     transform="translate(-30.578964,-54.3)"><path
       id="XMLID_71_"
       class="st0"
       d="m 169.4,88.3 c -0.4,-0.2 -8.1,-4.8 -17.1,-2.5 -0.8,-3.3 -3.1,-9.4 -10,-14.2 -0.8,-0.6 -1.9,-0.4 -2.5,0.3 -0.1,0.1 -2.4,2.8 -3.7,7.3 -1.1,3.8 -1.5,9.7 2,16.5 -1.8,1.1 -6.1,3 -14.6,3 l -4.4,0 0,-12.9 c 0,-1.1 -0.9,-1.9 -1.9,-1.9 l -12.9,0 0,-12.9 0,-14.8 c 0,-1.1 -0.9,-1.9 -1.9,-1.9 l -14.8,0 c -1.1,0 -1.9,0.9 -1.9,1.9 l 0,12.9 -12.9,0 -14.8,0 c -1.1,0 -1.9,0.9 -1.9,1.9 l 0,12.9 -12.9,0 c -1.1,0 -1.9,0.9 -1.9,1.9 l 0,13.1 -8.7,0 c -1,0 -1.8,0.7 -1.9,1.7 -0.1,0.8 -1.7,18.6 10.5,32.1 8.6,9.5 21.8,14.3 39.2,14.3 47.8,0 65.7,-36.8 68.9,-44.3 4.2,0 16.2,-1.1 20.9,-12 0.4,-0.9 0,-1.9 -0.8,-2.4 z m -98.5,-0.6 0,11 -11,0 0,-11 11,0 z m 29.6,-14.8 0,11 -11,0 0,-11 11,0 z m -11,14.8 11,0 0,11 -11,0 0,-11 z m -3.8,11 -11,0 0,-11 11,0 0,11 z m 29.6,0 -11,0 0,-11 11,0 0,11 z m -25.8,-40.6 11,0 0,11 -11,0 0,-11 z m -3.8,25.8 -11,0 0,-11 11,0 0,11 z m -25.8,-11 11,0 0,11 -11,0 0,-11 z m -14.8,14.8 11,0 0,11 -11,0 0,-11 z m 103,11.2 c -0.9,-0.1 -1.7,0.5 -1.9,1.3 0,0.1 -3.8,10.8 -13.8,21.5 -13.4,14.3 -30.9,21.5 -52,21.5 -15.6,0 -27.4,-4 -35.3,-11.9 1.1,0 2.2,0 3.2,0 10.9,0 17.9,-0.9 19.5,-2.7 0.7,-0.8 0.7,-2 -0.1,-2.7 -0.7,-0.7 -1.8,-0.7 -2.5,-0.1 -0.4,0.2 -4.4,2.1 -23.4,1.5 -6.9,-9.4 -7.5,-20.5 -7.4,-24.6 l 89.1,-0.2 c 13.7,0 18,-4.6 18.5,-5.1 0.5,-0.6 0.6,-1.5 0.2,-2.2 -5.4,-9.1 -2.4,-16.3 -0.6,-19.3 6.8,5.5 7.2,12.2 7.2,12.5 0,0.6 0.3,1.2 0.9,1.5 0.5,0.3 1.2,0.4 1.7,0.2 6,-2.2 11.7,-0.4 14.4,0.8 -5.1,8.7 -17.6,8 -17.7,8 z"
       inkscape:connector-curvature="0"
       style="fill:#007de7" /><circle
       id="XMLID_81_"
       class="st0"
       cx="72"
       cy="122.9"
       r="3.5"
       style="fill:#007de7" /></g></svg>