<?xml version="1.0" encoding="utf-8"?>
<!-- Generator: Adobe Illustrator 19.0.0, SVG Export Plug-In . SVG Version: 6.00 Build 0)  -->
<svg version="1.1" id="Layer_1" xmlns="http://www.w3.org/2000/svg" xmlns:xlink="http://www.w3.org/1999/xlink" x="0px" y="0px"
	 viewBox="0 0 200 200" style="enable-background:new 0 0 200 200;" xml:space="preserve">
<style type="text/css">
	.st0{fill:#FF9100;}
	.st1{opacity:0.15;fill:#231F20;}
	.st2{fill:#58301E;}
	.st3{fill:#3B2314;}
	.st4{fill:#379749;}
	.st5{fill:#CECFCF;}
	.st6{fill:#FFFFF5;}
	.st7{fill:#EAEAE2;}
	.st8{fill:#D77E44;}
	.st9{fill:#240D14;}
	.st10{fill:#23752F;}
	.st11{fill:#B7BCBC;}
</style>
<g>
	<path class="st0" d="M176.3,99.9c0,42.4-34.3,76.7-76.7,76.7c-42.4,0-76.7-34.3-76.7-76.7c0-42.4,34.3-76.7,76.7-76.7
		C142,23.2,176.3,57.6,176.3,99.9L176.3,99.9z M176.3,99.9"/>
	<path class="st1" d="M173.4,78.8l-40.1-26.2v1.7c1.5,0.9,2.6,2.8,2.2,4.5c-0.4,1.9-1.2,3.6-2.2,5.2v19.3h-21.5
		c-4.9,4.3-9.8,8.8-14.6,13.3c-0.5,0.7-1,1.5-1.5,2.2v10.5h-7.4c-1.1,1.4-2.2,2.9-3.4,4.3c-8.2,10-17.2,19.3-27.5,27.1
		c-0.9,0.7-1.9,0.8-2.8,0.6v5.2l46.1,30.1c41.9-0.6,75.6-34.7,75.6-76.7C176.3,92.6,175.3,85.5,173.4,78.8L173.4,78.8z M173.4,78.8"
		/>
	<path class="st2" d="M55.3,133.7l-1.8,1.6c-2.9,2.9-2.9,7.5,0,10.3c2.8,2.9,7.5,2.9,10.3,0l3.5-3.7l-1.9,2L55.3,133.7z M55.3,133.7
		"/>
	<path class="st3" d="M96.4,111.2l-7.9-7.9l-3.8,3.5l8.2,8.1L96.4,111.2z M96.4,111.2"/>
	<path class="st4" d="M61.9,127.7l-6.6,6l10.2,10.2l1.9-2l6.7-7.1l-9.6-9.6L61.9,127.7z M61.9,127.7"/>
	<path class="st2" d="M141.6,104.2c12.5-12.5,12.5-32.8,0-45.3c-12.5-12.5-32.8-12.5-45.3,0c-10.7,10.7-12.2,27-4.7,39.3
		c-1.1-0.7-2.6-0.5-3.6,0.4c-1.1,1.1-1.1,3,0,4.2l0.5,0.5l7.9,7.9l-3.6,3.8l-8.2-8.2l-22.8,20.9l2.6-2.4l9.6,9.6l22.4-23.7l0.7,0.7
		c1.1,1.1,3,1.1,4.2,0c0.9-0.9,1.1-2.2,0.6-3.3C114.3,116.5,130.8,115,141.6,104.2L141.6,104.2z M101.7,98.7
		c-9.5-9.5-9.5-24.9,0-34.4c9.5-9.5,24.9-9.5,34.4,0c9.5,9.5,9.5,24.9,0,34.4C126.7,108.2,111.3,108.2,101.7,98.7L101.7,98.7z
		 M101.7,98.7"/>
	<path class="st5" d="M136.2,64.3c-9.5-9.5-24.9-9.5-34.4,0c-9.5,9.5-9.5,24.9,0,34.4c9.5,9.5,24.9,9.5,34.4,0
		C145.7,89.2,145.7,73.8,136.2,64.3L136.2,64.3z M103.5,96.9c-8.5-8.5-8.5-22.3,0-30.9c8.5-8.5,22.3-8.5,30.9,0
		c8.5,8.5,8.5,22.3,0,30.9C125.9,105.5,112.1,105.5,103.5,96.9L103.5,96.9z M103.5,96.9"/>
	<path class="st6" d="M134.4,66.1c-8.5-8.5-22.3-8.5-30.9,0c-8.5,8.5-8.5,22.3,0,30.9c8.5,8.5,22.3,8.5,30.9,0
		C142.9,88.4,142.9,74.6,134.4,66.1L134.4,66.1z M134.4,66.1"/>
	<path class="st7" d="M134.4,66.1c-0.1-0.1-0.1-0.1-0.2-0.2l-30.8,30.8c0.1,0.1,0.1,0.1,0.2,0.2c8.5,8.5,22.3,8.5,30.9,0
		C142.9,88.4,142.9,74.6,134.4,66.1L134.4,66.1z M134.4,66.1"/>
	<path class="st8" d="M67.4,141.9l-1.9,2L67.4,141.9z M67.4,141.9"/>
	<path class="st3" d="M65.5,143.9l-4.7-4.7l-6.9,6.9c2.9,2.4,7.1,2.3,9.8-0.4L65.5,143.9z M65.5,143.9"/>
	<path class="st9" d="M89,111.1l3.9,3.9l3.6-3.8l-3.8-3.8L89,111.1z M89,111.1"/>
	<path class="st10" d="M60.8,139.2l4.7,4.7l1.9-2l6.7-7.1l-4.4-4.4L60.8,139.2z M60.8,139.2"/>
	<path class="st3" d="M89,111.1l-19.3,19.3l4.4,4.4l22.4-23.7l-3.6,3.8L89,111.1z M89,111.1"/>
	<path class="st3" d="M141.6,104.2c12.5-12.5,12.5-32.8,0-45.3c-0.1-0.1-0.1-0.1-0.2-0.2l-5.5,5.5c0.1,0.1,0.1,0.1,0.2,0.2
		c9.5,9.5,9.5,24.9,0,34.4c-9.5,9.5-24.9,9.5-34.4,0c-0.1-0.1-0.1-0.1-0.2-0.2l-8.9,8.9l4.5,4.5c1.1,1.1,3,1.1,4.2,0
		c0.9-0.9,1.1-2.2,0.6-3.3C114.3,116.5,130.8,115,141.6,104.2L141.6,104.2z M141.6,104.2"/>
	<path class="st11" d="M136.2,64.3c-0.1-0.1-0.1-0.1-0.2-0.2l-1.8,1.8c0.1,0.1,0.1,0.1,0.2,0.2c8.5,8.5,8.5,22.3,0,30.9
		c-8.5,8.5-22.3,8.5-30.9,0c-0.1-0.1-0.1-0.1-0.2-0.2l-1.8,1.8c0.1,0.1,0.1,0.1,0.2,0.2c9.5,9.5,24.9,9.5,34.4,0
		C145.7,89.2,145.7,73.8,136.2,64.3L136.2,64.3z M136.2,64.3"/>
</g>
</svg>
