<?xml version="1.0" encoding="utf-8"?>
<!-- Generator: Adobe Illustrator 19.0.0, SVG Export Plug-In . SVG Version: 6.00 Build 0)  -->
<svg version="1.1" id="Layer_1" xmlns="http://www.w3.org/2000/svg" xmlns:xlink="http://www.w3.org/1999/xlink" x="0px" y="0px"
	 viewBox="0 0 200 200" style="enable-background:new 0 0 200 200;" xml:space="preserve">
<style type="text/css">
	.st0{fill:#00A8A8;}
	.st1{opacity:0.15;fill:#231F20;}
	.st2{fill:#491E69;}
	.st3{fill:#132439;}
	.st4{fill:#AFE6E6;}
</style>
<g>
	<path class="st0" d="M177.2,99.9c0,42.4-34.3,76.7-76.7,76.7c-42.4,0-76.7-34.3-76.7-76.7c0-42.4,34.3-76.7,76.7-76.7
		C142.8,23.2,177.2,57.6,177.2,99.9L177.2,99.9z M177.2,99.9"/>
	<path class="st1" d="M100.2,59.9l-5.7,9.2l-35.6,7.5l-3.6,13.3V123l73.6,48.1c25.4-10.1,44-33.4,47.6-61.4L100.2,59.9z M100.2,59.9
		"/>
	<path class="st2" d="M114.2,100.6c1.6,0,3-1.3,3-3V86.3c0-1.6-1.3-3-3-3h-4c-1.6,0-3.3-0.8-3.7-1.8c-0.4-1-0.7-4.4,0.4-5.6l3-3
		c1.1-1.1,1.1-3,0-4.2l-8-8c-1.2-1.1-3-1.1-4.2,0l-3.4,3.4c-1.2,1.2-2.8,1.8-3.7,1.4c-0.9-0.4-3.3-2.5-3.3-4.1v-5c0-1.6-1.3-3-3-3
		H73c-1.6,0-3,1.3-3,3V62c0,1.6-0.7,3.2-1.5,3.5c-0.8,0.3-3.8,0.4-5-0.8l-3.9-3.9c-1.1-1.2-3-1.2-4.2,0l-8,8c-1.1,1.1-1.1,3,0,4.2
		l3.9,3.9c1.1,1.1,1.8,2.7,1.4,3.5c-0.4,0.8-2.5,2.9-4.1,2.9h-5.5c-1.6,0-3,1.3-3,3v11.3c0,1.6,1.3,3,3,3h5c1.6,0,3.2,0.7,3.5,1.7
		c0.3,0.9,0.3,4.1-0.8,5.3l-3.4,3.4c-1.1,1.2-1.1,3,0,4.2l8,8c1.1,1.2,3,1.2,4.2,0l3-3c1.2-1.2,2.9-1.7,3.8-1.2
		c1,0.5,3.6,2.8,3.6,4.5v4c0,1.6,1.3,3,3,3h11.3c1.6,0,3-1.3,3-3V124c0-1.6,0.9-3.3,2-3.6c1.1-0.4,4.8-0.7,5.9,0.4l2.4,2.4
		c1.2,1.1,3,1.1,4.2,0l8-8c1.1-1.2,1.1-3,0-4.2l-2.4-2.4c-1.1-1.2-1.7-2.9-1.2-4c0.5-1,2.8-3.9,4.4-3.9H114.2z M79.4,116.2
		c-12.9,0-23.4-10.5-23.4-23.4c0-12.9,10.5-23.4,23.4-23.4c12.9,0,23.4,10.5,23.4,23.4C102.8,105.7,92.3,116.2,79.4,116.2
		L79.4,116.2z M79.4,116.2"/>
	<path class="st3" d="M79.4,69.3C66.4,69.3,56,79.8,56,92.8c0,12.9,10.5,23.4,23.4,23.4c12.9,0,23.4-10.5,23.4-23.4
		C102.8,79.8,92.3,69.3,79.4,69.3L79.4,69.3z M79.4,111.2c-10.2,0-18.5-8.3-18.5-18.5c0-10.2,8.3-18.5,18.5-18.5
		c10.2,0,18.5,8.3,18.5,18.5C97.9,103,89.6,111.2,79.4,111.2L79.4,111.2z M79.4,111.2"/>
	<path class="st4" d="M154.4,132.9c0.9,0.5,2.1,0.1,2.6-0.9l3.3-6.6c0.5-0.9,0.1-2.1-0.9-2.6l-2.3-1.2c-0.9-0.5-1.7-1.4-1.6-2.1
		c0.1-0.7,0.8-2.8,1.8-3.1l2.6-0.9c1-0.3,1.5-1.4,1.2-2.4l-2.3-7c-0.3-1-1.4-1.5-2.4-1.2l-3,1c-1,0.3-2.1,0.2-2.5-0.2
		c-0.4-0.5-1.2-2.4-0.7-3.3l1.5-2.9c0.5-0.9,0.1-2.1-0.9-2.6l-6.6-3.3c-0.9-0.5-2.1-0.1-2.6,0.9l-1.6,3.2c-0.5,0.9-1.3,1.7-1.9,1.6
		c-0.6-0.1-2.3-0.9-2.7-1.9l-1.1-3.4c-0.3-1-1.4-1.5-2.4-1.2l-7,2.3c-1,0.3-1.5,1.4-1.2,2.4l1.1,3.4c0.3,1,0.2,2.1-0.2,2.4
		c-0.4,0.3-2.3,1-3.3,0.5l-3.2-1.6c-0.9-0.5-2.1-0.1-2.6,0.9l-3.3,6.6c-0.5,0.9-0.1,2.1,0.9,2.6l2.9,1.5c0.9,0.5,1.6,1.4,1.5,2
		c-0.1,0.6-1,2.5-2,2.8l-3,1c-1,0.3-1.5,1.4-1.2,2.4l2.3,7c0.3,1,1.4,1.5,2.4,1.2l2.6-0.9c1-0.3,2.2-0.2,2.6,0.4
		c0.4,0.6,1.3,2.7,0.8,3.6l-1.2,2.3c-0.5,0.9-0.1,2.1,0.9,2.6l6.6,3.3c0.9,0.5,2.1,0.1,2.6-0.9l1-2.1c0.5-0.9,1.5-1.6,2.2-1.5
		c0.7,0.1,3,1,3.3,2l0.7,2.1c0.3,1,1.4,1.5,2.4,1.2l7-2.3c1-0.3,1.5-1.4,1.2-2.4l-0.7-2.1c-0.3-1-0.1-2.2,0.5-2.7
		c0.6-0.5,2.8-1.5,3.7-1L154.4,132.9z M129.8,131.9c-7.5-3.7-10.5-12.8-6.8-20.3c3.7-7.5,12.8-10.5,20.3-6.8
		c7.5,3.7,10.5,12.8,6.8,20.3C146.4,132.6,137.3,135.6,129.8,131.9L129.8,131.9z M129.8,131.9"/>
	<path class="st3" d="M143.3,104.7c-7.5-3.7-16.6-0.7-20.3,6.8c-3.7,7.5-0.7,16.6,6.8,20.3c7.5,3.7,16.6,0.7,20.3-6.8
		C153.9,117.6,150.8,108.5,143.3,104.7L143.3,104.7z M131.2,129c-5.9-2.9-8.3-10.2-5.4-16.1c2.9-5.9,10.2-8.3,16.1-5.4
		c5.9,2.9,8.3,10.2,5.4,16.1C144.3,129.5,137.1,132,131.2,129L131.2,129z M131.2,129"/>
</g>
</svg>
