<?xml version="1.0" encoding="utf-8"?>
<!-- Generator: Adobe Illustrator 19.0.0, SVG Export Plug-In . SVG Version: 6.00 Build 0)  -->
<svg version="1.1" id="Layer_1" xmlns="http://www.w3.org/2000/svg" xmlns:xlink="http://www.w3.org/1999/xlink" x="0px" y="0px"
	 viewBox="0 0 200 200" style="enable-background:new 0 0 200 200;" xml:space="preserve">
<style type="text/css">
	.st0{fill:#AEAD74;}
	.st1{fill:#8AC91E;}
	.st2{opacity:0.15;fill:#231F20;}
	.st3{fill:#FFFFF5;}
	.st4{fill:#F4F3E1;}
	.st5{fill:#DDD7D5;}
	.st6{fill:#BC0B00;}
	.st7{fill:#F57B00;}
	.st8{fill:#FF3000;}
	.st9{fill:#EDD5AB;}
	.st10{fill:#FCEDCD;}
	.st11{fill:#262261;}
</style>
<g>
	<path class="st0" d="M176.6,99.9c0,42.4-34.3,76.7-76.7,76.7c-42.4,0-76.7-34.3-76.7-76.7c0-42.4,34.3-76.7,76.7-76.7
		C142.3,23.2,176.6,57.6,176.6,99.9L176.6,99.9z M176.6,99.9"/>
	<path class="st1" d="M176.6,99.9c0,42.4-34.3,76.7-76.7,76.7c-42.4,0-76.7-34.3-76.7-76.7c0-42.4,34.3-76.7,76.7-76.7
		C142.3,23.2,176.6,57.6,176.6,99.9L176.6,99.9z M176.6,99.9"/>
	<path class="st2" d="M168.8,66.1l-31.5-18.7v6.2H131v36.1H95.5v2.4H62.7v61.5l38,23c42-0.4,75.9-34.6,75.9-76.7
		C176.6,87.8,173.8,76.3,168.8,66.1L168.8,66.1z M168.8,66.1"/>
	<path class="st3" d="M133.2,46.4H68.3c-4.1,0-7.5,3-7.5,6.7v96.1c0,3.7,3.4,6.7,7.5,6.7h48.3c11.3,0,24.1-12.8,24.1-22.5V53
		C140.7,49.4,137.4,46.4,133.2,46.4L133.2,46.4z M133.2,46.4"/>
	<path class="st4" d="M99.7,46.4H68.3c-4.1,0-7.5,3-7.5,6.7v96.1c0,3.7,3.4,6.7,7.5,6.7h31.4V46.4z M99.7,46.4"/>
	<path class="st5" d="M140.6,133.3h-13.4c-1.8,0-3,0.1-3,0.1c-4.1,0-7.4,2.9-7.5,6.5v16c20.6,0,24.1-16.3,24.1-22.5
		C140.7,133.3,140.7,133.3,140.6,133.3L140.6,133.3z M140.6,133.3"/>
	<path class="st5" d="M72.1,64.9c0,2-1.6,3.5-3.5,3.5c-2,0-3.5-1.6-3.5-3.5c0-2,1.6-3.5,3.5-3.5C70.5,61.4,72.1,62.9,72.1,64.9
		L72.1,64.9z M72.1,64.9"/>
	<path class="st5" d="M72.1,94.8c0,2-1.6,3.5-3.5,3.5c-2,0-3.5-1.6-3.5-3.5c0-2,1.6-3.5,3.5-3.5C70.5,91.3,72.1,92.9,72.1,94.8
		L72.1,94.8z M72.1,94.8"/>
	<path class="st5" d="M72.1,124c0,2-1.6,3.5-3.5,3.5c-2,0-3.5-1.6-3.5-3.5c0-2,1.6-3.5,3.5-3.5C70.5,120.4,72.1,122,72.1,124
		L72.1,124z M72.1,124"/>
	<path class="st5" d="M130.5,64.4c0,2.6-1.9,4.7-4.1,4.7h-46c-2.3,0-4.1-2.1-4.1-4.7c0-2.6,1.9-4.7,4.1-4.7h46
		C128.7,59.7,130.5,61.8,130.5,64.4L130.5,64.4z M130.5,64.4"/>
	<path class="st5" d="M130.5,94.1c0,2.6-1.9,4.7-4.1,4.7h-46c-2.3,0-4.1-2.1-4.1-4.7c0-2.6,1.9-4.7,4.1-4.7h46
		C128.7,89.4,130.5,91.5,130.5,94.1L130.5,94.1z M130.5,94.1"/>
	<path class="st5" d="M130.5,124.1c0,2.6-1.9,4.7-4.1,4.7h-46c-2.3,0-4.1-2.1-4.1-4.7c0-2.6,1.9-4.7,4.1-4.7h46
		C128.7,119.4,130.5,121.5,130.5,124.1L130.5,124.1z M130.5,124.1"/>
	<path class="st3" d="M136.5,94.5c-1.7,1-3.9,0.5-4.8-1.1l-5.7-9.8c-1-1.6-0.4-3.8,1.4-4.8l9.7-5.7c1.7-1,3.9-0.5,4.8,1.1l5.7,9.8
		c1,1.6,0.4,3.8-1.4,4.8L136.5,94.5z M136.5,94.5"/>
	<path class="st5" d="M147.5,84l-2.9-4.9l-15.9,9.4l2.9,4.9c1,1.6,3.1,2.1,4.8,1.1l9.7-5.7C147.9,87.8,148.5,85.7,147.5,84L147.5,84
		z M147.5,84"/>
	<path class="st6" d="M99.2,116.6l42.1-24.9l-2.9-4.8l-42.1,24.9L99.2,116.6z M99.2,116.6"/>
	<path class="st7" d="M134.7,80.6l-42.1,24.9l-2.7-4.6L132,76L134.7,80.6z M134.7,80.6"/>
	<path class="st8" d="M138.4,86.9l-42.1,24.9l-3.7-6.3l42.1-24.9L138.4,86.9z M138.4,86.9"/>
	<path class="st9" d="M94.4,108.5l-13.7,8.1l18.5,0L94.4,108.5z M94.4,108.5"/>
	<path class="st10" d="M94.5,108.8l-4.7-7.9l-9.2,15.7h0.6L94.5,108.8z M94.5,108.8"/>
	<path class="st11" d="M83.4,111.8l-2.8,4.8h0.6l5,0L83.4,111.8z M83.4,111.8"/>
</g>
</svg>
