<?xml version="1.0" encoding="UTF-8" standalone="no"?>
<svg
   xmlns:dc="http://purl.org/dc/elements/1.1/"
   xmlns:cc="http://creativecommons.org/ns#"
   xmlns:rdf="http://www.w3.org/1999/02/22-rdf-syntax-ns#"
   xmlns:svg="http://www.w3.org/2000/svg"
   xmlns="http://www.w3.org/2000/svg"
   xmlns:sodipodi="http://sodipodi.sourceforge.net/DTD/sodipodi-0.dtd"
   xmlns:inkscape="http://www.inkscape.org/namespaces/inkscape"
   xml:space="preserve"
   viewBox="0 0 65.763222 58.299999"
   y="0px"
   x="0px"
   id="Layer_1"
   version="1.1"
   inkscape:version="0.91 r13725"
   sodipodi:docname="google_cloud.svg"
   width="65.763222"
   height="58.299999"><sodipodi:namedview
     pagecolor="#ffffff"
     bordercolor="#666666"
     borderopacity="1"
     objecttolerance="10"
     gridtolerance="10"
     guidetolerance="10"
     inkscape:pageopacity="0"
     inkscape:pageshadow="2"
     inkscape:window-width="1594"
     inkscape:window-height="851"
     id="namedview3780"
     showgrid="false"
     fit-margin-top="0"
     fit-margin-left="0"
     fit-margin-right="0"
     fit-margin-bottom="0"
     inkscape:zoom="0.38562092"
     inkscape:cx="32.425"
     inkscape:cy="29.3"
     inkscape:window-x="0"
     inkscape:window-y="46"
     inkscape:window-maximized="0"
     inkscape:current-layer="Layer_1" /><metadata
     id="metadata38"><rdf:RDF><cc:Work
         rdf:about=""><dc:format>image/svg+xml</dc:format><dc:type
           rdf:resource="http://purl.org/dc/dcmitype/StillImage" /><dc:title></dc:title></cc:Work></rdf:RDF></metadata><defs
     id="defs36" /><style
     id="style2"
     type="text/css">
	.st0{fill:#CECDCA;}
	.st1{fill:#F3B41A;}
	.st2{fill:#DC462F;}
	.st3{fill:#517DBE;}
	.st4{fill:#4F71A8;}
	.st5{fill:#C2432F;}
	.st6{fill:#D09C2A;}
	.st7{fill:#FFFFFF;}
	.st8{fill:#C9C7C5;}
	.st9{fill:#4472B7;}
	.st10{fill:#FFFFFF;stroke:#4472B7;stroke-miterlimit:10;}
	.st11{fill:#F2AF1C;}
	.st12{fill:#DD482F;}
</style><g
     id="XMLID_68_"
     transform="translate(-363.575,-277)"><polygon
       points="407.6,285.9 419.1,306 407.6,326 384.5,326 372.9,306 384.5,285.9 "
       class="st0"
       id="XMLID_103_"
       style="fill:#cecdca" /><path
       d="m 386.4,323.4 -10.3,-17.6 -5.6,-9.6 c -0.4,-0.7 -0.6,-1.7 -0.5,-2.6 l -5.9,10.2 c -0.7,1.2 -0.7,3.2 0,4.5 l 14.2,24.6 c 0.7,1.2 2.4,2.2 3.9,2.2 l 16.9,0 c 0.7,-0.4 1.3,-0.9 1.6,-1.5 l 5.8,-10.2 -20.1,0 z"
       class="st1"
       id="XMLID_102_"
       inkscape:connector-curvature="0"
       style="fill:#f3b41a" /><polygon
       points="428.8,303.9 414.5,279.2 420.3,289.3 "
       class="st2"
       id="XMLID_67_"
       style="fill:#dc462f" /><path
       d="m 428.8,303.9 -8.4,-14.6 c -0.7,-0.4 -1.6,-0.7 -2.3,-0.7 l -11.5,0 9.9,17.5 -9.9,17.5 -5.8,10.2 c -0.3,0.6 -0.9,1.1 -1.6,1.5 l 11.5,0 c 1.4,0 3.2,-1 3.9,-2.2 l 5.7,-9.8 8.6,-14.8 c 0.6,-1.4 0.6,-3.4 -0.1,-4.6 z"
       class="st2"
       id="XMLID_66_"
       inkscape:connector-curvature="0"
       style="fill:#dc462f" /><path
       d="m 414.5,279.2 c -0.7,-1.2 -2.4,-2.2 -3.9,-2.2 l -11.2,0 -17.3,0 c -1.4,0 -3.2,1 -3.9,2.2 l -8.3,14.4 c -0.1,0.9 0.1,1.9 0.5,2.6 l 5.6,9.6 10,-17.4 20.3,0 11.7,0 c 0.8,0 1.6,0.3 2.3,0.7 l -5.8,-9.9 z"
       class="st3"
       id="XMLID_65_"
       inkscape:connector-curvature="0"
       style="fill:#517dbe" /><polygon
       points="416.4,306 406.5,288.5 386.2,288.5 376.2,305.9 386.4,323.4 406.5,323.4 "
       class="st0"
       id="XMLID_64_"
       style="fill:#cecdca" /><path
       d="m 370.4,293 -0.4,0.6 c -0.1,0.9 0.1,1.9 0.5,2.6 l 5.6,9.6 3,-5.2 -8.7,-7.6 z"
       class="st4"
       id="XMLID_63_"
       inkscape:connector-curvature="0"
       style="fill:#4f71a8" /><path
       d="m 420.7,289.9 -0.4,-0.7 c -0.7,-0.4 -1.6,-0.7 -2.3,-0.7 l -11.5,0 3,5.3 11.2,-3.9 z"
       class="st5"
       id="XMLID_62_"
       inkscape:connector-curvature="0"
       style="fill:#c2432f" /><path
       d="m 398.2,335.2 1,0 c 0.7,-0.4 1.3,-0.9 1.6,-1.5 l 5.8,-10.2 -6.2,0 -2.2,11.7 z"
       class="st6"
       id="XMLID_61_"
       inkscape:connector-curvature="0"
       style="fill:#d09c2a" /><g
       id="XMLID_97_"><path
         d="m 396.4,315.1 c -5,0 -9,-4 -9,-9 0,-5 4,-9 9,-9 5,0 9,4 9,9 0,4.9 -4,9 -9,9 z"
         class="st7"
         id="XMLID_60_"
         inkscape:connector-curvature="0"
         style="fill:#ffffff" /><path
         d="m 396.4,297.2 c 4.9,0 8.9,4 8.9,8.9 0,4.9 -4,8.9 -8.9,8.9 -4.9,0 -8.9,-4 -8.9,-8.9 0,-4.9 4,-8.9 8.9,-8.9 m 0,-0.3 c -5,0 -9.1,4.1 -9.1,9.1 0,5 4.1,9.1 9.1,9.1 5,0 9.1,-4.1 9.1,-9.1 0,-5 -4.1,-9.1 -9.1,-9.1 l 0,0 z"
         class="st8"
         id="XMLID_98_"
         inkscape:connector-curvature="0"
         style="fill:#c9c7c5" /></g><g
       id="XMLID_92_"><circle
         r="1.7"
         cy="282.70001"
         cx="382.89999"
         class="st7"
         id="XMLID_57_"
         style="fill:#ffffff" /><path
         d="m 382.9,281.1 c 0.9,0 1.6,0.7 1.6,1.6 0,0.9 -0.7,1.6 -1.6,1.6 -0.9,0 -1.6,-0.7 -1.6,-1.6 0,-0.9 0.7,-1.6 1.6,-1.6 m 0,-0.3 c -1,0 -1.9,0.8 -1.9,1.9 0,1 0.8,1.9 1.9,1.9 1,0 1.9,-0.8 1.9,-1.9 0,-1.1 -0.8,-1.9 -1.9,-1.9 l 0,0 z"
         class="st9"
         id="XMLID_93_"
         inkscape:connector-curvature="0"
         style="fill:#4472b7" /></g><circle
       r="1.6"
       cy="282.70001"
       cx="409.79999"
       class="st10"
       id="XMLID_54_"
       style="fill:#ffffff;stroke:#4472b7;stroke-miterlimit:10" /><g
       id="XMLID_86_"><circle
         r="1.7"
         cy="329.20001"
         cx="382.89999"
         class="st7"
         id="XMLID_53_"
         style="fill:#ffffff" /><path
         d="m 382.9,327.6 c 0.9,0 1.6,0.7 1.6,1.6 0,0.9 -0.7,1.6 -1.6,1.6 -0.9,0 -1.6,-0.7 -1.6,-1.6 0,-0.9 0.7,-1.6 1.6,-1.6 m 0,-0.2 c -1,0 -1.9,0.8 -1.9,1.9 0,1 0.8,1.9 1.9,1.9 1,0 1.9,-0.8 1.9,-1.9 0,-1.1 -0.8,-1.9 -1.9,-1.9 l 0,0 z"
         class="st11"
         id="XMLID_87_"
         inkscape:connector-curvature="0"
         style="fill:#f2af1c" /></g><g
       id="XMLID_81_"><circle
         r="1.7"
         cy="329.20001"
         cx="409.79999"
         class="st7"
         id="XMLID_50_"
         style="fill:#ffffff" /><path
         d="m 409.8,327.6 c 0.9,0 1.6,0.7 1.6,1.6 0,0.9 -0.7,1.6 -1.6,1.6 -0.9,0 -1.6,-0.7 -1.6,-1.6 0,-0.9 0.7,-1.6 1.6,-1.6 m 0,-0.2 c -1,0 -1.9,0.8 -1.9,1.9 0,1 0.8,1.9 1.9,1.9 1.1,0 1.9,-0.8 1.9,-1.9 0,-1.1 -0.9,-1.9 -1.9,-1.9 l 0,0 z"
         class="st12"
         id="XMLID_82_"
         inkscape:connector-curvature="0"
         style="fill:#dd482f" /></g><g
       id="XMLID_76_"><circle
         r="1.7"
         cy="306.10001"
         cx="423.29999"
         class="st7"
         id="XMLID_47_"
         style="fill:#ffffff" /><path
         d="m 423.3,304.5 c 0.9,0 1.6,0.7 1.6,1.6 0,0.9 -0.7,1.6 -1.6,1.6 -0.9,0 -1.6,-0.7 -1.6,-1.6 0,-0.9 0.7,-1.6 1.6,-1.6 m 0,-0.3 c -1,0 -1.9,0.8 -1.9,1.9 0,1 0.8,1.9 1.9,1.9 1,0 1.9,-0.8 1.9,-1.9 0,-1 -0.9,-1.9 -1.9,-1.9 l 0,0 z"
         class="st12"
         id="XMLID_77_"
         inkscape:connector-curvature="0"
         style="fill:#dd482f" /></g><g
       id="XMLID_71_"><circle
         r="1.7"
         cy="306.10001"
         cx="369.39999"
         class="st7"
         id="XMLID_42_"
         style="fill:#ffffff" /><path
         d="m 369.4,304.5 c 0.9,0 1.6,0.7 1.6,1.6 0,0.9 -0.7,1.6 -1.6,1.6 -0.9,0 -1.6,-0.7 -1.6,-1.6 0,-0.9 0.7,-1.6 1.6,-1.6 m 0,-0.3 c -1,0 -1.9,0.8 -1.9,1.9 0,1 0.8,1.9 1.9,1.9 1,0 1.9,-0.8 1.9,-1.9 0,-1 -0.9,-1.9 -1.9,-1.9 l 0,0 z"
         class="st11"
         id="XMLID_72_"
         inkscape:connector-curvature="0"
         style="fill:#f2af1c" /></g></g></svg>