<?xml version="1.0" encoding="utf-8"?>
<!-- Generator: Adobe Illustrator 17.0.0, SVG Export Plug-In . SVG Version: 6.00 Build 0)  -->
<!DOCTYPE svg PUBLIC "-//W3C//DTD SVG 1.1 Tiny//EN" "http://www.w3.org/Graphics/SVG/1.1/DTD/svg11-tiny.dtd">
<svg version="1.1" baseProfile="tiny" id="Layer_1" xmlns="http://www.w3.org/2000/svg" xmlns:xlink="http://www.w3.org/1999/xlink"
	 x="0px" y="0px" width="109.749px" height="109.749px" viewBox="0 0 109.749 109.749" xml:space="preserve">
<g>
	<path fill="#FF9100" d="M54.874,0C24.568,0,0,24.568,0,54.875c0,30.306,24.568,54.874,54.874,54.874s54.874-24.568,54.874-54.874
		C109.749,24.568,85.181,0,54.874,0z M37.406,23.199c0-1.111,0.901-2.013,2.013-2.013H70.33c1.111,0,2.013,0.901,2.013,2.013v12.453
		c0,1.111-0.901,2.013-2.013,2.013H39.419c-1.111,0-2.013-0.901-2.013-2.013V23.199z M30.389,48.483
		c0-1.111,0.901-2.013,2.013-2.013h20.46v-2.39H34.537c-1.111,0-2.013-0.901-2.013-2.013c0-1.111,0.901-2.013,2.013-2.013h40.675
		c1.112,0,2.013,0.901,2.013,2.013c0,1.111-0.901,2.013-2.013,2.013H56.887v2.39h20.46c1.111,0,2.013,0.901,2.013,2.013v8.68
		c0,1.111-0.901,2.013-2.013,2.013c-1.112,0-2.013-0.901-2.013-2.013v-6.667H56.887v8.303c0,1.111-0.901,2.013-2.013,2.013
		s-2.013-0.901-2.013-2.013v-8.303H34.415v6.667c0,1.111-0.901,2.013-2.013,2.013c-1.111,0-2.013-0.901-2.013-2.013V48.483z
		 M38.798,59.301h9.724c1.112,0,2.013,0.901,2.013,2.013c0,1.111-0.901,2.013-2.013,2.013h-9.724c-1.112,0-2.013-0.901-2.013-2.013
		C36.785,60.203,37.686,59.301,38.798,59.301z M36.785,54.985c0-1.111,0.901-2.013,2.013-2.013h9.724
		c1.112,0,2.013,0.901,2.013,2.013c0,1.111-0.901,2.013-2.013,2.013h-9.724C37.686,56.997,36.785,56.096,36.785,54.985z
		 M36.916,65.843h35.916c1.112,0,2.013,0.901,2.013,2.013c0,1.111-0.901,2.013-2.013,2.013H36.916c-1.112,0-2.013-0.901-2.013-2.013
		C34.904,66.744,35.805,65.843,36.916,65.843z M61.329,59.301h9.724c1.112,0,2.013,0.901,2.013,2.013
		c0,1.111-0.901,2.013-2.013,2.013h-9.724c-1.111,0-2.013-0.901-2.013-2.013C59.317,60.203,60.218,59.301,61.329,59.301z
		 M59.317,54.985c0-1.111,0.901-2.013,2.013-2.013h9.724c1.112,0,2.013,0.901,2.013,2.013c0,1.111-0.901,2.013-2.013,2.013h-9.724
		C60.218,56.997,59.317,56.096,59.317,54.985z M78.762,76.535H50.128l-5.79,6.413c6.074,0.438,14.146,0.484,22.929-0.882
		l-0.236-0.214c-0.824-0.746-0.886-2.019-0.14-2.843c0.746-0.823,2.019-0.886,2.843-0.14l6.829,6.189
		c0.824,0.746,0.886,2.019,0.14,2.843c-0.397,0.438-0.943,0.661-1.492,0.661c-0.482,0-0.966-0.172-1.351-0.521L71.056,85.5
		c-6.935,1.324-13.493,1.774-19.168,1.774c-11.244,0-19.036-1.746-19.52-1.857c-1.084-0.249-1.76-1.329-1.511-2.412
		c0.249-1.083,1.328-1.759,2.411-1.511c0.062,0.014,2.364,0.522,6.187,0.984c0.071-0.126,0.12-0.261,0.221-0.373l5.029-5.57H30.987
		c-1.112,0-2.013-0.901-2.013-2.013c0-1.111,0.901-2.013,2.013-2.013h47.775c1.112,0,2.013,0.901,2.013,2.013
		C80.775,75.634,79.873,76.535,78.762,76.535z"/>
	<rect x="41.431" y="31.438" fill="#FF9100" width="26.886" height="2.201"/>
	<rect x="41.431" y="25.211" fill="#FF9100" width="26.886" height="2.201"/>
</g>
</svg>
